<mxfile host="65bd71144e" modified="2021-02-08T18:12:40.429Z" agent="5.0 (Macintosh; Intel Mac OS X 11_2_0) AppleWebKit/537.36 (KHTML, like Gecko) Code/1.53.0 Chrome/87.0.4280.141 Electron/11.2.1 Safari/537.36" version="13.10.0" etag="bCBvgE4WlfWDkG4MCY2X" type="embed">
    <diagram id="OiB7PLac6LgUTXdPzHdW" name="Page-1">
        <mxGraphModel dx="350" dy="208" grid="1" gridSize="10" guides="1" tooltips="1" connect="1" arrows="1" fold="1" page="1" pageScale="1" pageWidth="1100" pageHeight="850" math="0" shadow="0">
            <root>
                <mxCell id="0"/>
                <mxCell id="1" parent="0"/>
                <mxCell id="42" value="" style="whiteSpace=wrap;html=1;shape=mxgraph.basic.cloud_rect" vertex="1" parent="1">
                    <mxGeometry x="45" y="20" width="1055" height="450" as="geometry"/>
                </mxCell>
                <mxCell id="43" value="K8s Cluster" style="text;html=1;align=center;verticalAlign=middle;resizable=0;points=[];autosize=1;" vertex="1" parent="1">
                    <mxGeometry x="90" y="60" width="80" height="20" as="geometry"/>
                </mxCell>
                <mxCell id="44" value="Ingress&lt;br&gt;Service&lt;br&gt;service_balance" style="rounded=0;whiteSpace=wrap;html=1;" vertex="1" parent="1">
                    <mxGeometry y="170" width="100" height="150" as="geometry"/>
                </mxCell>
                <mxCell id="53" value="ClusterIP&lt;br&gt;Service" style="rounded=0;whiteSpace=wrap;html=1;" vertex="1" parent="1">
                    <mxGeometry x="167.5" y="290" width="65" height="100" as="geometry"/>
                </mxCell>
                <mxCell id="61" value="Deployment" style="rounded=0;whiteSpace=wrap;html=1;" vertex="1" parent="1">
                    <mxGeometry x="232.5" y="290" width="120" height="25" as="geometry"/>
                </mxCell>
                <mxCell id="65" value="api_route pod" style="rounded=0;whiteSpace=wrap;html=1;" vertex="1" parent="1">
                    <mxGeometry x="232.5" y="365" width="120" height="25" as="geometry"/>
                </mxCell>
                <mxCell id="66" value="api_route pod" style="rounded=0;whiteSpace=wrap;html=1;" vertex="1" parent="1">
                    <mxGeometry x="232.5" y="340" width="120" height="25" as="geometry"/>
                </mxCell>
                <mxCell id="67" value="api_route pod" style="rounded=0;whiteSpace=wrap;html=1;" vertex="1" parent="1">
                    <mxGeometry x="232.5" y="315" width="120" height="25" as="geometry"/>
                </mxCell>
                <mxCell id="68" value="ClusterIP&lt;br&gt;Service" style="rounded=0;whiteSpace=wrap;html=1;" vertex="1" parent="1">
                    <mxGeometry x="170" y="110" width="65" height="100" as="geometry"/>
                </mxCell>
                <mxCell id="69" value="Deployment" style="rounded=0;whiteSpace=wrap;html=1;" vertex="1" parent="1">
                    <mxGeometry x="235" y="110" width="120" height="25" as="geometry"/>
                </mxCell>
                <mxCell id="70" value="static_front pod" style="rounded=0;whiteSpace=wrap;html=1;" vertex="1" parent="1">
                    <mxGeometry x="235" y="185" width="120" height="25" as="geometry"/>
                </mxCell>
                <mxCell id="71" value="static_front pod" style="rounded=0;whiteSpace=wrap;html=1;" vertex="1" parent="1">
                    <mxGeometry x="235" y="160" width="120" height="25" as="geometry"/>
                </mxCell>
                <mxCell id="72" value="static_front pod" style="rounded=0;whiteSpace=wrap;html=1;" vertex="1" parent="1">
                    <mxGeometry x="235" y="135" width="120" height="25" as="geometry"/>
                </mxCell>
                <mxCell id="74" value="ClusterIP&lt;br&gt;Service" style="rounded=0;whiteSpace=wrap;html=1;" vertex="1" parent="1">
                    <mxGeometry x="436" y="110" width="65" height="100" as="geometry"/>
                </mxCell>
                <mxCell id="75" value="Deployment" style="rounded=0;whiteSpace=wrap;html=1;" vertex="1" parent="1">
                    <mxGeometry x="501" y="110" width="120" height="25" as="geometry"/>
                </mxCell>
                <mxCell id="76" value="dynamic_front pod" style="rounded=0;whiteSpace=wrap;html=1;" vertex="1" parent="1">
                    <mxGeometry x="501" y="185" width="120" height="25" as="geometry"/>
                </mxCell>
                <mxCell id="77" value="dynamic_front pod" style="rounded=0;whiteSpace=wrap;html=1;" vertex="1" parent="1">
                    <mxGeometry x="501" y="160" width="120" height="25" as="geometry"/>
                </mxCell>
                <mxCell id="78" value="dynamic_front pod" style="rounded=0;whiteSpace=wrap;html=1;" vertex="1" parent="1">
                    <mxGeometry x="501" y="135" width="120" height="25" as="geometry"/>
                </mxCell>
                <mxCell id="79" value="ClusterIP&lt;br&gt;Service" style="rounded=0;whiteSpace=wrap;html=1;" vertex="1" parent="1">
                    <mxGeometry x="434" y="290" width="65" height="100" as="geometry"/>
                </mxCell>
                <mxCell id="80" value="Deployment" style="rounded=0;whiteSpace=wrap;html=1;" vertex="1" parent="1">
                    <mxGeometry x="499" y="290" width="120" height="25" as="geometry"/>
                </mxCell>
                <mxCell id="81" value="api pod" style="rounded=0;whiteSpace=wrap;html=1;" vertex="1" parent="1">
                    <mxGeometry x="499" y="365" width="120" height="25" as="geometry"/>
                </mxCell>
                <mxCell id="82" value="api pod" style="rounded=0;whiteSpace=wrap;html=1;" vertex="1" parent="1">
                    <mxGeometry x="499" y="340" width="120" height="25" as="geometry"/>
                </mxCell>
                <mxCell id="83" value="api pod" style="rounded=0;whiteSpace=wrap;html=1;" vertex="1" parent="1">
                    <mxGeometry x="499" y="315" width="120" height="25" as="geometry"/>
                </mxCell>
                <mxCell id="84" value="ClusterIP&lt;br&gt;Service" style="rounded=0;whiteSpace=wrap;html=1;" vertex="1" parent="1">
                    <mxGeometry x="702" y="195" width="65" height="100" as="geometry"/>
                </mxCell>
                <mxCell id="85" value="Deployment" style="rounded=0;whiteSpace=wrap;html=1;" vertex="1" parent="1">
                    <mxGeometry x="767" y="195" width="120" height="25" as="geometry"/>
                </mxCell>
                <mxCell id="152" style="edgeStyle=orthogonalEdgeStyle;rounded=0;orthogonalLoop=1;jettySize=auto;html=1;exitX=1;exitY=0.5;exitDx=0;exitDy=0;entryX=0;entryY=0.5;entryDx=0;entryDy=0;" edge="1" parent="1" source="86" target="149">
                    <mxGeometry relative="1" as="geometry"/>
                </mxCell>
                <mxCell id="86" value="user_db pod" style="rounded=0;whiteSpace=wrap;html=1;" vertex="1" parent="1">
                    <mxGeometry x="767" y="270" width="120" height="25" as="geometry"/>
                </mxCell>
                <mxCell id="151" style="edgeStyle=orthogonalEdgeStyle;rounded=0;orthogonalLoop=1;jettySize=auto;html=1;exitX=1;exitY=0.5;exitDx=0;exitDy=0;entryX=0;entryY=0.5;entryDx=0;entryDy=0;" edge="1" parent="1" source="87" target="148">
                    <mxGeometry relative="1" as="geometry"/>
                </mxCell>
                <mxCell id="87" value="user_db pod" style="rounded=0;whiteSpace=wrap;html=1;" vertex="1" parent="1">
                    <mxGeometry x="767" y="245" width="120" height="25" as="geometry"/>
                </mxCell>
                <mxCell id="150" style="edgeStyle=orthogonalEdgeStyle;rounded=0;orthogonalLoop=1;jettySize=auto;html=1;exitX=1;exitY=0.5;exitDx=0;exitDy=0;entryX=0;entryY=0.5;entryDx=0;entryDy=0;" edge="1" parent="1" source="88" target="147">
                    <mxGeometry relative="1" as="geometry"/>
                </mxCell>
                <mxCell id="88" value="user_db pod" style="rounded=0;whiteSpace=wrap;html=1;" vertex="1" parent="1">
                    <mxGeometry x="767" y="220" width="120" height="25" as="geometry"/>
                </mxCell>
                <mxCell id="89" value="ClusterIP&lt;br&gt;Service" style="rounded=0;whiteSpace=wrap;html=1;" vertex="1" parent="1">
                    <mxGeometry x="702" y="330" width="65" height="100" as="geometry"/>
                </mxCell>
                <mxCell id="90" value="Deployment" style="rounded=0;whiteSpace=wrap;html=1;" vertex="1" parent="1">
                    <mxGeometry x="767" y="330" width="120" height="25" as="geometry"/>
                </mxCell>
                <mxCell id="156" style="edgeStyle=orthogonalEdgeStyle;rounded=0;orthogonalLoop=1;jettySize=auto;html=1;exitX=1;exitY=0.5;exitDx=0;exitDy=0;entryX=0;entryY=0.5;entryDx=0;entryDy=0;" edge="1" parent="1" source="91" target="155">
                    <mxGeometry relative="1" as="geometry"/>
                </mxCell>
                <mxCell id="91" value="graph_db pod" style="rounded=0;whiteSpace=wrap;html=1;" vertex="1" parent="1">
                    <mxGeometry x="767" y="405" width="120" height="25" as="geometry"/>
                </mxCell>
                <mxCell id="157" style="edgeStyle=orthogonalEdgeStyle;rounded=0;orthogonalLoop=1;jettySize=auto;html=1;exitX=1;exitY=0.5;exitDx=0;exitDy=0;entryX=0;entryY=0.5;entryDx=0;entryDy=0;" edge="1" parent="1" source="92" target="154">
                    <mxGeometry relative="1" as="geometry"/>
                </mxCell>
                <mxCell id="92" value="graph_db pod" style="rounded=0;whiteSpace=wrap;html=1;" vertex="1" parent="1">
                    <mxGeometry x="767" y="380" width="120" height="25" as="geometry"/>
                </mxCell>
                <mxCell id="158" style="edgeStyle=orthogonalEdgeStyle;rounded=0;orthogonalLoop=1;jettySize=auto;html=1;exitX=1;exitY=0.5;exitDx=0;exitDy=0;entryX=0;entryY=0.5;entryDx=0;entryDy=0;" edge="1" parent="1" source="93" target="153">
                    <mxGeometry relative="1" as="geometry"/>
                </mxCell>
                <mxCell id="93" value="graph_db pod" style="rounded=0;whiteSpace=wrap;html=1;" vertex="1" parent="1">
                    <mxGeometry x="767" y="355" width="120" height="25" as="geometry"/>
                </mxCell>
                <mxCell id="94" value="" style="endArrow=none;html=1;entryX=1;entryY=0.5;entryDx=0;entryDy=0;exitX=1;exitY=0.5;exitDx=0;exitDy=0;" edge="1" parent="1" source="67" target="65">
                    <mxGeometry width="50" height="50" relative="1" as="geometry">
                        <mxPoint x="340" y="442.5" as="sourcePoint"/>
                        <mxPoint x="390" y="392.5" as="targetPoint"/>
                        <Array as="points">
                            <mxPoint x="370" y="328"/>
                            <mxPoint x="370" y="378"/>
                        </Array>
                    </mxGeometry>
                </mxCell>
                <mxCell id="95" value="" style="endArrow=classic;html=1;exitX=1;exitY=0.5;exitDx=0;exitDy=0;entryX=-0.008;entryY=0.625;entryDx=0;entryDy=0;entryPerimeter=0;" edge="1" parent="1" source="66" target="79">
                    <mxGeometry width="50" height="50" relative="1" as="geometry">
                        <mxPoint x="420" y="360" as="sourcePoint"/>
                        <mxPoint x="390" y="352" as="targetPoint"/>
                    </mxGeometry>
                </mxCell>
                <mxCell id="96" value="" style="endArrow=none;html=1;entryX=1;entryY=0.5;entryDx=0;entryDy=0;exitX=1;exitY=0.5;exitDx=0;exitDy=0;" edge="1" parent="1">
                    <mxGeometry width="50" height="50" relative="1" as="geometry">
                        <mxPoint x="355" y="147.25" as="sourcePoint"/>
                        <mxPoint x="355" y="197.25" as="targetPoint"/>
                        <Array as="points">
                            <mxPoint x="372.5" y="147.75"/>
                            <mxPoint x="372.5" y="197.75"/>
                        </Array>
                    </mxGeometry>
                </mxCell>
                <mxCell id="97" value="" style="endArrow=classic;html=1;exitX=1;exitY=0.5;exitDx=0;exitDy=0;entryX=-0.008;entryY=0.625;entryDx=0;entryDy=0;entryPerimeter=0;" edge="1" parent="1">
                    <mxGeometry width="50" height="50" relative="1" as="geometry">
                        <mxPoint x="355" y="172.25" as="sourcePoint"/>
                        <mxPoint x="435.9799999999999" y="172.25" as="targetPoint"/>
                    </mxGeometry>
                </mxCell>
                <mxCell id="98" value="" style="endArrow=none;html=1;entryX=1;entryY=0.5;entryDx=0;entryDy=0;exitX=1;exitY=0.5;exitDx=0;exitDy=0;" edge="1" parent="1">
                    <mxGeometry width="50" height="50" relative="1" as="geometry">
                        <mxPoint x="621" y="327.25" as="sourcePoint"/>
                        <mxPoint x="621" y="377.25" as="targetPoint"/>
                        <Array as="points">
                            <mxPoint x="638.5" y="327.75"/>
                            <mxPoint x="638.5" y="377.75"/>
                        </Array>
                    </mxGeometry>
                </mxCell>
                <mxCell id="99" value="" style="endArrow=classic;html=1;exitX=1;exitY=0.5;exitDx=0;exitDy=0;entryX=-0.008;entryY=0.625;entryDx=0;entryDy=0;entryPerimeter=0;" edge="1" parent="1">
                    <mxGeometry width="50" height="50" relative="1" as="geometry">
                        <mxPoint x="621" y="352.25" as="sourcePoint"/>
                        <mxPoint x="701.9799999999999" y="352.25" as="targetPoint"/>
                    </mxGeometry>
                </mxCell>
                <mxCell id="100" value="" style="endArrow=classic;html=1;entryX=0;entryY=0.5;entryDx=0;entryDy=0;" edge="1" parent="1">
                    <mxGeometry width="50" height="50" relative="1" as="geometry">
                        <mxPoint x="660" y="352" as="sourcePoint"/>
                        <mxPoint x="702" y="247" as="targetPoint"/>
                        <Array as="points">
                            <mxPoint x="660" y="247"/>
                        </Array>
                    </mxGeometry>
                </mxCell>
                <mxCell id="101" value="" style="endArrow=classic;html=1;exitX=1;exitY=0.5;exitDx=0;exitDy=0;entryX=0;entryY=0.5;entryDx=0;entryDy=0;" edge="1" parent="1" source="44" target="68">
                    <mxGeometry width="50" height="50" relative="1" as="geometry">
                        <mxPoint x="440" y="320" as="sourcePoint"/>
                        <mxPoint x="490" y="270" as="targetPoint"/>
                        <Array as="points">
                            <mxPoint x="140" y="245"/>
                            <mxPoint x="140" y="160"/>
                        </Array>
                    </mxGeometry>
                </mxCell>
                <mxCell id="102" value="" style="endArrow=classic;html=1;exitX=1;exitY=0.5;exitDx=0;exitDy=0;entryX=0;entryY=0.5;entryDx=0;entryDy=0;" edge="1" parent="1" target="53">
                    <mxGeometry width="50" height="50" relative="1" as="geometry">
                        <mxPoint x="100" y="245" as="sourcePoint"/>
                        <mxPoint x="170" y="160" as="targetPoint"/>
                        <Array as="points">
                            <mxPoint x="140" y="245"/>
                            <mxPoint x="140" y="340"/>
                        </Array>
                    </mxGeometry>
                </mxCell>
                <mxCell id="103" value="" style="whiteSpace=wrap;html=1;shape=mxgraph.basic.cloud_rect" vertex="1" parent="1">
                    <mxGeometry x="46" y="500" width="1054" height="450" as="geometry"/>
                </mxCell>
                <mxCell id="104" value="K8s Cluster" style="text;html=1;align=center;verticalAlign=middle;resizable=0;points=[];autosize=1;" vertex="1" parent="1">
                    <mxGeometry x="91" y="540" width="80" height="20" as="geometry"/>
                </mxCell>
                <mxCell id="105" value="Ingress&lt;br&gt;Service&lt;br&gt;service_balance" style="rounded=0;whiteSpace=wrap;html=1;" vertex="1" parent="1">
                    <mxGeometry x="1" y="650" width="100" height="150" as="geometry"/>
                </mxCell>
                <mxCell id="106" value="ClusterIP&lt;br&gt;Service" style="rounded=0;whiteSpace=wrap;html=1;" vertex="1" parent="1">
                    <mxGeometry x="168.5" y="770" width="65" height="100" as="geometry"/>
                </mxCell>
                <mxCell id="107" value="Deployment" style="rounded=0;whiteSpace=wrap;html=1;" vertex="1" parent="1">
                    <mxGeometry x="233.5" y="770" width="120" height="25" as="geometry"/>
                </mxCell>
                <mxCell id="108" value="api_route pod" style="rounded=0;whiteSpace=wrap;html=1;" vertex="1" parent="1">
                    <mxGeometry x="233.5" y="845" width="120" height="25" as="geometry"/>
                </mxCell>
                <mxCell id="109" value="api_route pod" style="rounded=0;whiteSpace=wrap;html=1;" vertex="1" parent="1">
                    <mxGeometry x="233.5" y="820" width="120" height="25" as="geometry"/>
                </mxCell>
                <mxCell id="110" value="api_route pod" style="rounded=0;whiteSpace=wrap;html=1;" vertex="1" parent="1">
                    <mxGeometry x="233.5" y="795" width="120" height="25" as="geometry"/>
                </mxCell>
                <mxCell id="111" value="ClusterIP&lt;br&gt;Service" style="rounded=0;whiteSpace=wrap;html=1;" vertex="1" parent="1">
                    <mxGeometry x="171" y="590" width="65" height="100" as="geometry"/>
                </mxCell>
                <mxCell id="112" value="Deployment" style="rounded=0;whiteSpace=wrap;html=1;" vertex="1" parent="1">
                    <mxGeometry x="236" y="590" width="120" height="25" as="geometry"/>
                </mxCell>
                <mxCell id="113" value="front_end pod" style="rounded=0;whiteSpace=wrap;html=1;" vertex="1" parent="1">
                    <mxGeometry x="236" y="665" width="120" height="25" as="geometry"/>
                </mxCell>
                <mxCell id="114" value="front_end pod" style="rounded=0;whiteSpace=wrap;html=1;" vertex="1" parent="1">
                    <mxGeometry x="236" y="640" width="120" height="25" as="geometry"/>
                </mxCell>
                <mxCell id="115" value="front_end pod" style="rounded=0;whiteSpace=wrap;html=1;" vertex="1" parent="1">
                    <mxGeometry x="236" y="615" width="120" height="25" as="geometry"/>
                </mxCell>
                <mxCell id="121" value="ClusterIP&lt;br&gt;Service" style="rounded=0;whiteSpace=wrap;html=1;" vertex="1" parent="1">
                    <mxGeometry x="435" y="770" width="65" height="100" as="geometry"/>
                </mxCell>
                <mxCell id="122" value="Deployment" style="rounded=0;whiteSpace=wrap;html=1;" vertex="1" parent="1">
                    <mxGeometry x="500" y="770" width="120" height="25" as="geometry"/>
                </mxCell>
                <mxCell id="123" value="api pod" style="rounded=0;whiteSpace=wrap;html=1;" vertex="1" parent="1">
                    <mxGeometry x="500" y="845" width="120" height="25" as="geometry"/>
                </mxCell>
                <mxCell id="124" value="api pod" style="rounded=0;whiteSpace=wrap;html=1;" vertex="1" parent="1">
                    <mxGeometry x="500" y="820" width="120" height="25" as="geometry"/>
                </mxCell>
                <mxCell id="125" value="api pod" style="rounded=0;whiteSpace=wrap;html=1;" vertex="1" parent="1">
                    <mxGeometry x="500" y="795" width="120" height="25" as="geometry"/>
                </mxCell>
                <mxCell id="126" value="ClusterIP&lt;br&gt;Service" style="rounded=0;whiteSpace=wrap;html=1;" vertex="1" parent="1">
                    <mxGeometry x="703" y="675" width="65" height="100" as="geometry"/>
                </mxCell>
                <mxCell id="127" value="Deployment" style="rounded=0;whiteSpace=wrap;html=1;" vertex="1" parent="1">
                    <mxGeometry x="768" y="675" width="120" height="25" as="geometry"/>
                </mxCell>
                <mxCell id="128" value="user_db pod" style="rounded=0;whiteSpace=wrap;html=1;" vertex="1" parent="1">
                    <mxGeometry x="768" y="750" width="120" height="25" as="geometry"/>
                </mxCell>
                <mxCell id="129" value="user_db pod" style="rounded=0;whiteSpace=wrap;html=1;" vertex="1" parent="1">
                    <mxGeometry x="768" y="725" width="120" height="25" as="geometry"/>
                </mxCell>
                <mxCell id="130" value="user_db pod" style="rounded=0;whiteSpace=wrap;html=1;" vertex="1" parent="1">
                    <mxGeometry x="768" y="700" width="120" height="25" as="geometry"/>
                </mxCell>
                <mxCell id="131" value="ClusterIP&lt;br&gt;Service" style="rounded=0;whiteSpace=wrap;html=1;" vertex="1" parent="1">
                    <mxGeometry x="703" y="810" width="65" height="100" as="geometry"/>
                </mxCell>
                <mxCell id="132" value="Deployment" style="rounded=0;whiteSpace=wrap;html=1;" vertex="1" parent="1">
                    <mxGeometry x="768" y="810" width="120" height="25" as="geometry"/>
                </mxCell>
                <mxCell id="133" value="graph_db pod" style="rounded=0;whiteSpace=wrap;html=1;" vertex="1" parent="1">
                    <mxGeometry x="768" y="885" width="120" height="25" as="geometry"/>
                </mxCell>
                <mxCell id="134" value="graph_db pod" style="rounded=0;whiteSpace=wrap;html=1;" vertex="1" parent="1">
                    <mxGeometry x="768" y="860" width="120" height="25" as="geometry"/>
                </mxCell>
                <mxCell id="135" value="graph_db pod" style="rounded=0;whiteSpace=wrap;html=1;" vertex="1" parent="1">
                    <mxGeometry x="768" y="835" width="120" height="25" as="geometry"/>
                </mxCell>
                <mxCell id="136" value="" style="endArrow=none;html=1;entryX=1;entryY=0.5;entryDx=0;entryDy=0;exitX=1;exitY=0.5;exitDx=0;exitDy=0;" edge="1" parent="1" source="110" target="108">
                    <mxGeometry width="50" height="50" relative="1" as="geometry">
                        <mxPoint x="341" y="922.5" as="sourcePoint"/>
                        <mxPoint x="391" y="872.5" as="targetPoint"/>
                        <Array as="points">
                            <mxPoint x="371" y="808"/>
                            <mxPoint x="371" y="858"/>
                        </Array>
                    </mxGeometry>
                </mxCell>
                <mxCell id="137" value="" style="endArrow=classic;html=1;exitX=1;exitY=0.5;exitDx=0;exitDy=0;entryX=-0.008;entryY=0.625;entryDx=0;entryDy=0;entryPerimeter=0;" edge="1" parent="1" source="109" target="121">
                    <mxGeometry width="50" height="50" relative="1" as="geometry">
                        <mxPoint x="421" y="840" as="sourcePoint"/>
                        <mxPoint x="391" y="832" as="targetPoint"/>
                    </mxGeometry>
                </mxCell>
                <mxCell id="140" value="" style="endArrow=none;html=1;entryX=1;entryY=0.5;entryDx=0;entryDy=0;exitX=1;exitY=0.5;exitDx=0;exitDy=0;" edge="1" parent="1">
                    <mxGeometry width="50" height="50" relative="1" as="geometry">
                        <mxPoint x="622" y="807.25" as="sourcePoint"/>
                        <mxPoint x="622" y="857.25" as="targetPoint"/>
                        <Array as="points">
                            <mxPoint x="639.5" y="807.75"/>
                            <mxPoint x="639.5" y="857.75"/>
                        </Array>
                    </mxGeometry>
                </mxCell>
                <mxCell id="141" value="" style="endArrow=classic;html=1;exitX=1;exitY=0.5;exitDx=0;exitDy=0;entryX=-0.008;entryY=0.625;entryDx=0;entryDy=0;entryPerimeter=0;" edge="1" parent="1">
                    <mxGeometry width="50" height="50" relative="1" as="geometry">
                        <mxPoint x="622" y="832.25" as="sourcePoint"/>
                        <mxPoint x="702.98" y="832.25" as="targetPoint"/>
                    </mxGeometry>
                </mxCell>
                <mxCell id="142" value="" style="endArrow=classic;html=1;entryX=0;entryY=0.5;entryDx=0;entryDy=0;" edge="1" parent="1">
                    <mxGeometry width="50" height="50" relative="1" as="geometry">
                        <mxPoint x="661" y="832" as="sourcePoint"/>
                        <mxPoint x="703" y="727" as="targetPoint"/>
                        <Array as="points">
                            <mxPoint x="661" y="727"/>
                        </Array>
                    </mxGeometry>
                </mxCell>
                <mxCell id="143" value="" style="endArrow=classic;html=1;exitX=1;exitY=0.5;exitDx=0;exitDy=0;entryX=0;entryY=0.5;entryDx=0;entryDy=0;" edge="1" parent="1" source="105" target="111">
                    <mxGeometry width="50" height="50" relative="1" as="geometry">
                        <mxPoint x="441" y="800" as="sourcePoint"/>
                        <mxPoint x="491" y="750" as="targetPoint"/>
                        <Array as="points">
                            <mxPoint x="141" y="725"/>
                            <mxPoint x="141" y="640"/>
                        </Array>
                    </mxGeometry>
                </mxCell>
                <mxCell id="144" value="" style="endArrow=classic;html=1;exitX=1;exitY=0.5;exitDx=0;exitDy=0;entryX=0;entryY=0.5;entryDx=0;entryDy=0;" edge="1" parent="1" target="106">
                    <mxGeometry width="50" height="50" relative="1" as="geometry">
                        <mxPoint x="101" y="725" as="sourcePoint"/>
                        <mxPoint x="171" y="640" as="targetPoint"/>
                        <Array as="points">
                            <mxPoint x="141" y="725"/>
                            <mxPoint x="141" y="820"/>
                        </Array>
                    </mxGeometry>
                </mxCell>
                <mxCell id="147" value="user_db pvc" style="rounded=0;whiteSpace=wrap;html=1;" vertex="1" parent="1">
                    <mxGeometry x="940" y="220" width="120" height="25" as="geometry"/>
                </mxCell>
                <mxCell id="148" value="user_db pvc" style="rounded=0;whiteSpace=wrap;html=1;" vertex="1" parent="1">
                    <mxGeometry x="940" y="245" width="120" height="25" as="geometry"/>
                </mxCell>
                <mxCell id="149" value="user_db pvc" style="rounded=0;whiteSpace=wrap;html=1;" vertex="1" parent="1">
                    <mxGeometry x="940" y="270" width="120" height="25" as="geometry"/>
                </mxCell>
                <mxCell id="153" value="graph_db pvc" style="rounded=0;whiteSpace=wrap;html=1;" vertex="1" parent="1">
                    <mxGeometry x="940" y="355" width="120" height="25" as="geometry"/>
                </mxCell>
                <mxCell id="154" value="graph_db pvc" style="rounded=0;whiteSpace=wrap;html=1;" vertex="1" parent="1">
                    <mxGeometry x="940" y="380" width="120" height="25" as="geometry"/>
                </mxCell>
                <mxCell id="155" value="graph_db pvc" style="rounded=0;whiteSpace=wrap;html=1;" vertex="1" parent="1">
                    <mxGeometry x="940" y="405" width="120" height="25" as="geometry"/>
                </mxCell>
                <mxCell id="159" style="edgeStyle=orthogonalEdgeStyle;rounded=0;orthogonalLoop=1;jettySize=auto;html=1;exitX=1;exitY=0.5;exitDx=0;exitDy=0;entryX=0;entryY=0.5;entryDx=0;entryDy=0;" edge="1" parent="1" target="167">
                    <mxGeometry relative="1" as="geometry">
                        <mxPoint x="887" y="765" as="sourcePoint"/>
                    </mxGeometry>
                </mxCell>
                <mxCell id="160" style="edgeStyle=orthogonalEdgeStyle;rounded=0;orthogonalLoop=1;jettySize=auto;html=1;exitX=1;exitY=0.5;exitDx=0;exitDy=0;entryX=0;entryY=0.5;entryDx=0;entryDy=0;" edge="1" parent="1" target="166">
                    <mxGeometry relative="1" as="geometry">
                        <mxPoint x="887" y="740" as="sourcePoint"/>
                    </mxGeometry>
                </mxCell>
                <mxCell id="161" style="edgeStyle=orthogonalEdgeStyle;rounded=0;orthogonalLoop=1;jettySize=auto;html=1;exitX=1;exitY=0.5;exitDx=0;exitDy=0;entryX=0;entryY=0.5;entryDx=0;entryDy=0;" edge="1" parent="1" target="165">
                    <mxGeometry relative="1" as="geometry">
                        <mxPoint x="887" y="715" as="sourcePoint"/>
                    </mxGeometry>
                </mxCell>
                <mxCell id="162" style="edgeStyle=orthogonalEdgeStyle;rounded=0;orthogonalLoop=1;jettySize=auto;html=1;exitX=1;exitY=0.5;exitDx=0;exitDy=0;entryX=0;entryY=0.5;entryDx=0;entryDy=0;" edge="1" parent="1" target="170">
                    <mxGeometry relative="1" as="geometry">
                        <mxPoint x="887" y="900" as="sourcePoint"/>
                    </mxGeometry>
                </mxCell>
                <mxCell id="163" style="edgeStyle=orthogonalEdgeStyle;rounded=0;orthogonalLoop=1;jettySize=auto;html=1;exitX=1;exitY=0.5;exitDx=0;exitDy=0;entryX=0;entryY=0.5;entryDx=0;entryDy=0;" edge="1" parent="1" target="169">
                    <mxGeometry relative="1" as="geometry">
                        <mxPoint x="887" y="875" as="sourcePoint"/>
                    </mxGeometry>
                </mxCell>
                <mxCell id="164" style="edgeStyle=orthogonalEdgeStyle;rounded=0;orthogonalLoop=1;jettySize=auto;html=1;exitX=1;exitY=0.5;exitDx=0;exitDy=0;entryX=0;entryY=0.5;entryDx=0;entryDy=0;" edge="1" parent="1" target="168">
                    <mxGeometry relative="1" as="geometry">
                        <mxPoint x="887" y="850" as="sourcePoint"/>
                    </mxGeometry>
                </mxCell>
                <mxCell id="165" value="user_db pvc" style="rounded=0;whiteSpace=wrap;html=1;" vertex="1" parent="1">
                    <mxGeometry x="940" y="702.5" width="120" height="25" as="geometry"/>
                </mxCell>
                <mxCell id="166" value="user_db pvc" style="rounded=0;whiteSpace=wrap;html=1;" vertex="1" parent="1">
                    <mxGeometry x="940" y="727.5" width="120" height="25" as="geometry"/>
                </mxCell>
                <mxCell id="167" value="user_db pvc" style="rounded=0;whiteSpace=wrap;html=1;" vertex="1" parent="1">
                    <mxGeometry x="940" y="752.5" width="120" height="25" as="geometry"/>
                </mxCell>
                <mxCell id="168" value="graph_db pvc" style="rounded=0;whiteSpace=wrap;html=1;" vertex="1" parent="1">
                    <mxGeometry x="940" y="837.5" width="120" height="25" as="geometry"/>
                </mxCell>
                <mxCell id="169" value="graph_db pvc" style="rounded=0;whiteSpace=wrap;html=1;" vertex="1" parent="1">
                    <mxGeometry x="940" y="862.5" width="120" height="25" as="geometry"/>
                </mxCell>
                <mxCell id="170" value="graph_db pvc" style="rounded=0;whiteSpace=wrap;html=1;" vertex="1" parent="1">
                    <mxGeometry x="940" y="887.5" width="120" height="25" as="geometry"/>
                </mxCell>
                <mxCell id="171" value="" style="rounded=0;whiteSpace=wrap;html=1;" vertex="1" parent="1">
                    <mxGeometry x="420" y="544" width="280" height="100" as="geometry"/>
                </mxCell>
                <mxCell id="172" value="front_end pod" style="text;html=1;align=center;verticalAlign=middle;resizable=0;points=[];autosize=1;" vertex="1" parent="1">
                    <mxGeometry x="514" y="549" width="90" height="20" as="geometry"/>
                </mxCell>
                <mxCell id="176" style="edgeStyle=orthogonalEdgeStyle;rounded=0;orthogonalLoop=1;jettySize=auto;html=1;exitX=1;exitY=0.5;exitDx=0;exitDy=0;entryX=0;entryY=0.5;entryDx=0;entryDy=0;" edge="1" parent="1" source="173" target="175">
                    <mxGeometry relative="1" as="geometry"/>
                </mxCell>
                <mxCell id="173" value="static_front" style="rounded=0;whiteSpace=wrap;html=1;" vertex="1" parent="1">
                    <mxGeometry x="430" y="594" width="90" height="42.5" as="geometry"/>
                </mxCell>
                <mxCell id="174" value="containers" style="text;html=1;align=center;verticalAlign=middle;resizable=0;points=[];autosize=1;" vertex="1" parent="1">
                    <mxGeometry x="524" y="569" width="70" height="20" as="geometry"/>
                </mxCell>
                <mxCell id="175" value="dynamic_front" style="rounded=0;whiteSpace=wrap;html=1;" vertex="1" parent="1">
                    <mxGeometry x="600" y="594" width="90" height="42.5" as="geometry"/>
                </mxCell>
                <mxCell id="177" value="projectpath.org/" style="text;html=1;align=center;verticalAlign=middle;resizable=0;points=[];autosize=1;" vertex="1" parent="1">
                    <mxGeometry x="67.5" y="610" width="100" height="20" as="geometry"/>
                </mxCell>
                <mxCell id="178" value="projectpath.org/api" style="text;html=1;align=center;verticalAlign=middle;resizable=0;points=[];autosize=1;" vertex="1" parent="1">
                    <mxGeometry x="57.5" y="847.5" width="110" height="20" as="geometry"/>
                </mxCell>
                <mxCell id="179" value="*.php" style="text;html=1;align=center;verticalAlign=middle;resizable=0;points=[];autosize=1;" vertex="1" parent="1">
                    <mxGeometry x="380" y="800" width="40" height="20" as="geometry"/>
                </mxCell>
                <mxCell id="180" value="*.php" style="text;html=1;align=center;verticalAlign=middle;resizable=0;points=[];autosize=1;" vertex="1" parent="1">
                    <mxGeometry x="539" y="595" width="40" height="20" as="geometry"/>
                </mxCell>
                <mxCell id="181" value="Request for User Graphs" style="text;html=1;align=center;verticalAlign=middle;resizable=0;points=[];autosize=1;" vertex="1" parent="1">
                    <mxGeometry x="550" y="885" width="150" height="20" as="geometry"/>
                </mxCell>
                <mxCell id="182" value="Request for User Accounts" style="text;html=1;align=center;verticalAlign=middle;resizable=0;points=[];autosize=1;" vertex="1" parent="1">
                    <mxGeometry x="530" y="700" width="160" height="20" as="geometry"/>
                </mxCell>
                <mxCell id="183" value="projectpath.org/" style="text;html=1;align=center;verticalAlign=middle;resizable=0;points=[];autosize=1;" vertex="1" parent="1">
                    <mxGeometry x="70" y="130" width="100" height="20" as="geometry"/>
                </mxCell>
                <mxCell id="184" value="projectpath.org/api" style="text;html=1;align=center;verticalAlign=middle;resizable=0;points=[];autosize=1;" vertex="1" parent="1">
                    <mxGeometry x="50" y="367.5" width="110" height="20" as="geometry"/>
                </mxCell>
                <mxCell id="185" value="*.php" style="text;html=1;align=center;verticalAlign=middle;resizable=0;points=[];autosize=1;" vertex="1" parent="1">
                    <mxGeometry x="380" y="150" width="40" height="20" as="geometry"/>
                </mxCell>
                <mxCell id="186" value="*.php" style="text;html=1;align=center;verticalAlign=middle;resizable=0;points=[];autosize=1;" vertex="1" parent="1">
                    <mxGeometry x="380" y="330" width="40" height="20" as="geometry"/>
                </mxCell>
                <mxCell id="187" value="Request for User Graphs" style="text;html=1;align=center;verticalAlign=middle;resizable=0;points=[];autosize=1;" vertex="1" parent="1">
                    <mxGeometry x="520" y="405" width="150" height="20" as="geometry"/>
                </mxCell>
                <mxCell id="188" value="Request for User Accounts" style="text;html=1;align=center;verticalAlign=middle;resizable=0;points=[];autosize=1;" vertex="1" parent="1">
                    <mxGeometry x="492.5" y="260" width="160" height="20" as="geometry"/>
                </mxCell>
            </root>
        </mxGraphModel>
    </diagram>
</mxfile>